<?xml version="1.0" encoding="utf-8"?><svg viewBox="0 0 502.66 502.66" xmlns="http://www.w3.org/2000/svg" xmlns:xlink="http://www.w3.org/1999/xlink"><style>:root>svg{display:none}:root>svg:target{display:block}</style><svg viewBox="0 0 32 32" id="city" xmlns="http://www.w3.org/2000/svg"><path d="M7.554 18.564l14.393-9.97a.592.592 0 01.905.703l-6.076 16.42c-.206.557-.963.606-1.163.076l-1.93-5.121a.568.568 0 00-.473-.368l-5.44-.595c-.564-.062-.704-.807-.216-1.145z"/><rect x=".5" y=".5" width="31" height="31" rx="15.5"/></svg><svg viewBox="0 0 14 14" id="favor" xmlns="http://www.w3.org/2000/svg"><g clip-path="url(#ba)"><path d="M3.252 8.961l-.74 4.53c-.058.36.326.63.644.454L7 11.821l3.844 2.125a.438.438 0 00.644-.454l-.74-4.53 3.127-3.205a.438.438 0 00-.247-.738l-4.303-.657-1.93-4.11c-.144-.306-.647-.306-.791 0l-1.929 4.11-4.303.657a.437.437 0 00-.247.738l3.127 3.205z"/></g><defs><clipPath id="ba"><path d="M0 0h14v14H0z"/></clipPath></defs></svg><svg viewBox="0 0 502.664 502.664" id="icon" xmlns="http://www.w3.org/2000/svg"><path d="M153.821 358.226L0 274.337v-46.463l153.821-83.414v54.574L46.636 250.523l107.185 53.431v54.272zm26.273 29.358L282.103 115.08h32.227L212.084 387.584h-31.99zm168.749-29.358v-54.272l107.164-52.999-107.164-52.59v-53.927l153.821 83.522v46.183l-153.821 84.083z"/></svg><svg viewBox="0 0 33 32" id="like" xmlns="http://www.w3.org/2000/svg"><path d="M16.5 23.012l-1.088-.99C11.55 18.52 9 16.21 9 13.376a4.085 4.085 0 014.125-4.125 4.49 4.49 0 013.375 1.568 4.491 4.491 0 013.375-1.568A4.085 4.085 0 0124 13.375c0 2.835-2.55 5.145-6.413 8.655l-1.087.982z"/></svg><svg viewBox="0 0 32 32" id="search" xmlns="http://www.w3.org/2000/svg"><path fill-rule="evenodd" clip-rule="evenodd" d="M9.7 15.65a5.95 5.95 0 1110.236 4.127.848.848 0 00-.159.159A5.95 5.95 0 019.7 15.65zm10.725 5.977a7.65 7.65 0 111.202-1.202l3.124 3.124a.85.85 0 01-1.202 1.202l-3.124-3.124z"/></svg></svg>